<svg width="15" height="11" viewBox="0 0 15 11" fill="none" xmlns="http://www.w3.org/2000/svg">
<path d="M14.432 6.38894C14.5784 6.38894 14.7188 6.33078 14.8223 6.22726C14.9258 6.12374 14.984 5.98334 14.984 5.83694V2.22094C14.9832 1.63559 14.7503 1.07443 14.3364 0.660522C13.9225 0.246614 13.3613 0.0137332 12.776 0.0129395H3.05999C2.47464 0.0137332 1.91348 0.246614 1.49957 0.660522C1.08567 1.07443 0.852783 1.63559 0.85199 2.22094L0.85199 8.59694C0.852783 9.18229 1.08567 9.74345 1.49957 10.1574C1.91348 10.5713 2.47464 10.8041 3.05999 10.8049H12.776C13.3613 10.8041 13.9225 10.5713 14.3364 10.1574C14.7503 9.74345 14.9832 9.18229 14.984 8.59694C14.9905 8.52077 14.9811 8.44408 14.9564 8.37173C14.9317 8.29938 14.8923 8.23294 14.8406 8.17664C14.7889 8.12033 14.726 8.07538 14.656 8.04462C14.586 8.01387 14.5104 7.99799 14.434 7.99799C14.3575 7.99799 14.2819 8.01387 14.2119 8.04462C14.142 8.07538 14.0791 8.12033 14.0274 8.17664C13.9757 8.23294 13.9363 8.29938 13.9116 8.37173C13.8869 8.44408 13.8775 8.52077 13.884 8.59694C13.8827 8.88827 13.7664 9.1673 13.5604 9.37331C13.3543 9.57931 13.0753 9.69562 12.784 9.69694H3.05999C2.76866 9.69562 2.48963 9.57931 2.28363 9.37331C2.07762 9.1673 1.96131 8.88827 1.95999 8.59694V2.33794L6.75999 5.31994C7.10943 5.53904 7.51354 5.65524 7.92599 5.65524C8.33844 5.65524 8.74254 5.53904 9.09199 5.31994L13.892 2.33794V5.83794C13.8922 5.98211 13.9488 6.12047 14.0498 6.22343C14.1507 6.3264 14.2879 6.38581 14.432 6.38894ZM8.50099 4.38294C8.32616 4.49221 8.12415 4.55014 7.91799 4.55014C7.71183 4.55014 7.50981 4.49221 7.33499 4.38294L2.41699 1.32394C2.60431 1.18921 2.82925 1.11679 3.05999 1.11694H12.776C13.0067 1.11679 13.2317 1.18921 13.419 1.32394L8.50099 4.38294Z" fill="white"/>
</svg>
