<svg width="15" height="15" viewBox="0 0 15 15" fill="none" xmlns="http://www.w3.org/2000/svg">
<path d="M14.544 12.4517C14.5142 12.3084 14.4286 12.1828 14.3061 12.1025C14.1837 12.0222 14.0343 11.9939 13.891 12.0237C13.7476 12.0536 13.622 12.1391 13.5417 12.2616C13.4615 12.384 13.4332 12.5334 13.463 12.6767C13.4809 12.761 13.4796 12.8482 13.4594 12.932C13.4391 13.0158 13.4004 13.0939 13.346 13.1607C13.293 13.2268 13.2256 13.2801 13.1491 13.3165C13.0725 13.3528 12.9887 13.3714 12.904 13.3707H2.11999C2.03524 13.3714 1.95144 13.3528 1.87489 13.3165C1.79833 13.2801 1.73102 13.2268 1.67799 13.1607C1.62359 13.0939 1.58484 13.0158 1.56459 12.932C1.54435 12.8482 1.54312 12.761 1.56099 12.6767C1.84465 11.3362 2.5714 10.1301 3.62413 9.25302C4.67686 8.3759 5.99424 7.87876 7.36399 7.84173H7.50999H7.65699C8.63037 7.86601 9.58364 8.12397 10.4364 8.59387C11.2892 9.06378 12.0165 9.73184 12.557 10.5417C12.6385 10.6633 12.7651 10.7476 12.9087 10.7759C13.0524 10.8042 13.2014 10.7743 13.323 10.6927C13.4446 10.6112 13.5288 10.4847 13.5571 10.341C13.5855 10.1973 13.5555 10.0483 13.474 9.92673C12.5846 8.59714 11.2768 7.60256 9.75799 7.10073C10.3897 6.62885 10.8569 5.97002 11.0931 5.21771C11.3293 4.46539 11.3226 3.6578 11.074 2.90949C10.8254 2.16118 10.3474 1.51016 9.70799 1.04879C9.06853 0.587411 8.30002 0.339111 7.51149 0.339111C6.72296 0.339111 5.95445 0.587411 5.31499 1.04879C4.67553 1.51016 4.19759 2.16118 3.94897 2.90949C3.70035 3.6578 3.69368 4.46539 3.9299 5.21771C4.16612 5.97002 4.63324 6.62885 5.26499 7.10073C4.06801 7.49435 2.9957 8.19605 2.15578 9.13532C1.31586 10.0746 0.737906 11.2184 0.479991 12.4517C0.428528 12.6958 0.432156 12.9483 0.49061 13.1907C0.549064 13.4332 0.660872 13.6596 0.817889 13.8534C0.974906 14.0472 1.17318 14.2036 1.39826 14.311C1.62334 14.4185 1.86956 14.4744 2.11899 14.4747H12.901C13.1508 14.475 13.3974 14.4196 13.623 14.3123C13.8486 14.2051 14.0474 14.0488 14.2048 13.855C14.3623 13.6611 14.4745 13.4345 14.5331 13.1917C14.5918 12.9489 14.5955 12.6961 14.544 12.4517ZM4.86099 4.09573C4.86086 3.57724 5.01283 3.07011 5.29808 2.63715C5.58333 2.20418 5.98932 1.8644 6.46577 1.6599C6.94222 1.4554 7.4682 1.39516 7.97855 1.48664C8.4889 1.57812 8.9612 1.8173 9.33696 2.17456C9.71271 2.53182 9.97541 2.99146 10.0925 3.49654C10.2096 4.00163 10.176 4.52997 9.99577 5.01613C9.81556 5.50229 9.4967 5.9249 9.07867 6.23163C8.66064 6.53835 8.16182 6.71571 7.64399 6.74173H7.37699C6.69859 6.70665 6.05949 6.41268 5.5914 5.9204C5.1233 5.42812 4.86188 4.77503 4.86099 4.09573Z" fill="white"/>
</svg>
