<svg width="15" height="15" viewBox="0 0 15 15" fill="none" xmlns="http://www.w3.org/2000/svg">
<path d="M14.827 12.0699C14.8084 11.526 14.5784 11.0109 14.186 10.6339C13.627 10.026 12.9296 9.56183 12.153 9.28091C11.7407 9.1595 11.3025 9.15734 10.8891 9.27468C10.4757 9.39201 10.104 9.62404 9.81698 9.94391L9.07098 10.6849C8.20911 10.1857 7.41778 9.57363 6.71798 8.86491L6.64498 8.79191C5.93626 8.0921 5.32419 7.30077 4.82498 6.43891L5.56598 5.69291C5.88584 5.40591 6.11788 5.03418 6.23521 4.62076C6.35255 4.20734 6.35039 3.76915 6.22898 3.35691C5.94846 2.58086 5.48504 1.88385 4.87798 1.32491C4.50032 0.932889 3.98519 0.702834 3.4412 0.683246C2.89721 0.663658 2.36686 0.856067 1.96198 1.21991L1.94598 1.23391L1.92398 1.25391C1.50933 1.69022 1.18689 2.20564 0.975896 2.76937C0.764906 3.33309 0.669706 3.93356 0.695981 4.53491C0.886115 7.18993 2.07913 9.67321 4.03298 11.4809C4.44851 11.8926 4.89045 12.2767 5.35598 12.6309C5.47215 12.72 5.61895 12.7593 5.76411 12.7402C5.90926 12.7211 6.04087 12.6451 6.12998 12.5289C6.21909 12.4127 6.25841 12.2659 6.23928 12.1208C6.22015 11.9756 6.14415 11.844 6.02798 11.7549C5.60044 11.4294 5.19457 11.0763 4.81298 10.6979C3.06357 9.09736 1.98555 6.89343 1.79598 4.52991C1.77314 4.07665 1.84098 3.6234 1.99552 3.1967C2.15006 2.76999 2.3882 2.37842 2.69598 2.04491C2.8877 1.87166 3.1394 1.77997 3.39763 1.78931C3.65586 1.79864 3.90027 1.90827 4.07898 2.09491C5.50798 3.57691 5.40498 4.27691 4.77298 4.92491L3.75398 5.95191C3.67558 6.0308 3.62284 6.13155 3.60268 6.24093C3.58251 6.35032 3.59586 6.46324 3.64098 6.56491C4.20573 7.68816 4.95631 8.70786 5.86098 9.58091L5.93398 9.65391C6.80611 10.5568 7.82442 11.306 8.94598 11.8699C9.04755 11.9151 9.16042 11.9287 9.2698 11.9087C9.37918 11.8887 9.47997 11.8361 9.55898 11.7579L10.59 10.7349C11.238 10.1029 11.937 9.99991 13.42 11.4289C13.6066 11.6076 13.7162 11.852 13.7256 12.1103C13.7349 12.3685 13.6432 12.6202 13.47 12.8119C13.1399 13.117 12.7527 13.3536 12.3306 13.5081C11.9085 13.6626 11.46 13.7319 11.011 13.7119H10.986C10.0444 13.6783 9.11868 13.4591 8.26198 13.0669C8.12752 13.0083 7.97528 13.0055 7.83875 13.0591C7.70222 13.1128 7.59259 13.2184 7.53398 13.3529C7.47537 13.4874 7.47257 13.6396 7.52621 13.7761C7.57984 13.9127 7.68552 14.0223 7.81998 14.0809C8.81213 14.5348 9.88537 14.7848 10.976 14.8159H11.007C11.6033 14.8384 12.1981 14.7413 12.7563 14.5302C13.3145 14.3191 13.8248 13.9984 14.257 13.5869L14.277 13.5649L14.291 13.5489C14.6554 13.1445 14.8478 12.6139 14.827 12.0699Z" fill="white"/>
</svg>
